<svg width="36" height="36" viewBox="0 0 36 36" fill="none" xmlns="http://www.w3.org/2000/svg">
<path d="M22.6957 0H33.653C34.9474 0 36 1.05342 36 2.3478V13.3043C36 14.5988 34.9466 15.6521 33.6522 15.6521H22.6957C21.4012 15.6521 20.3479 14.5987 20.3479 13.3043V2.3478C20.3478 1.05342 21.4012 0 22.6957 0ZM21.913 13.3043C21.913 13.7355 22.2645 14.0869 22.6956 14.0869H33.6522C34.0834 14.0869 34.4348 13.7355 34.4348 13.3043V2.3478C34.4348 1.91658 34.0842 1.56523 33.653 1.56523H22.6957C22.2645 1.56523 21.9131 1.91665 21.9131 2.3478V13.3043H21.913Z" fill="white"/>
<path d="M2.34778 0H13.3043C14.5987 0 15.6521 1.05342 15.6521 2.3478V13.3043C15.6521 14.5988 14.5987 15.6521 13.3043 15.6521H2.34778C1.05333 15.6521 -2.57492e-05 14.5987 -2.57492e-05 13.3043V2.3478C-2.57492e-05 1.05342 1.0534 0 2.34778 0ZM1.5652 13.3043C1.5652 13.7355 1.91578 14.0869 2.34778 14.0869H13.3043C13.7363 14.0869 14.0869 13.7355 14.0869 13.3043V2.3478C14.0869 1.91658 13.7363 1.56523 13.3043 1.56523H2.34778C1.91578 1.56523 1.5652 1.91665 1.5652 2.3478V13.3043Z" fill="white"/>
<path d="M22.6957 20.3478H33.653C34.9474 20.3478 36 21.4012 36 22.6957V33.6522C36 34.9466 34.9466 36 33.6522 36H22.6957C21.4012 36 20.3479 34.9466 20.3479 33.6522V22.6957C20.3478 21.4012 21.4012 20.3478 22.6957 20.3478ZM21.913 33.6522C21.913 34.0842 22.2645 34.4348 22.6956 34.4348H33.6522C34.0834 34.4348 34.4348 34.0842 34.4348 33.6522V22.6957C34.4348 22.2637 34.0842 21.9131 33.653 21.9131H22.6957C22.2645 21.9131 21.9131 22.2637 21.9131 22.6957V33.6522H21.913Z" fill="white"/>
<path d="M2.34778 20.3478H13.3043C14.5987 20.3478 15.6521 21.4012 15.6521 22.6956V33.6521C15.6521 34.9466 14.5987 35.9999 13.3043 35.9999H2.34778C1.05333 35.9999 -2.57492e-05 34.9465 -2.57492e-05 33.6521V22.6957C-2.57492e-05 21.4012 1.0534 20.3478 2.34778 20.3478ZM1.5652 33.6522C1.5652 34.0842 1.91578 34.4347 2.34778 34.4347H13.3043C13.7363 34.4347 14.0869 34.0842 14.0869 33.6522V22.6957C14.0869 22.2637 13.7363 21.9131 13.3043 21.9131H2.34778C1.91578 21.9131 1.5652 22.2637 1.5652 22.6957V33.6522Z" fill="white"/>
</svg>
