<svg width="30" height="24" viewBox="0 0 30 24" fill="none" xmlns="http://www.w3.org/2000/svg">
<path fill-rule="evenodd" clip-rule="evenodd" d="M16.2167 3.82328L20.1761 7.78276C20.6643 8.27093 20.6643 9.06241 20.1761 9.55058L10.2376 19.4895C10.0793 19.6478 9.88134 19.7607 9.66445 19.8164L4.33839 21.1831C3.41776 21.4193 2.58074 20.5823 2.81696 19.6616L4.18356 14.3354C4.23921 14.1185 4.35211 13.9205 4.51045 13.7622L14.449 3.8233C14.9371 3.33514 15.7285 3.33513 16.2167 3.82328ZM15.3328 5.06076L5.61946 14.7745L4.37489 19.6251L9.22537 18.3804L18.9387 8.66668L15.3328 5.06076Z" fill="#7D86A1"/>
<path fill-rule="evenodd" clip-rule="evenodd" d="M15.6877 8.313C15.8829 8.50826 15.8829 8.82485 15.6877 9.02011L9.68791 15.0201C9.49265 15.2154 9.17607 15.2154 8.9808 15.0201C8.78554 14.8249 8.78553 14.5083 8.98079 14.313L14.9806 8.31302C15.1758 8.11775 15.4924 8.11775 15.6877 8.313Z" fill="#7D86A1"/>
<path fill-rule="evenodd" clip-rule="evenodd" d="M6.98019 16.3136C7.17546 16.1184 7.49204 16.1184 7.6873 16.3136L9.68722 18.3136C9.88248 18.5089 9.88247 18.8255 9.68721 19.0207C9.49194 19.216 9.17536 19.216 8.9801 19.0207L6.98018 17.0207C6.78492 16.8255 6.78493 16.5089 6.98019 16.3136Z" fill="#7D86A1"/>
<path fill-rule="evenodd" clip-rule="evenodd" d="M17.4707 1.46966C17.7636 1.17677 18.2384 1.17678 18.5313 1.46968L22.5312 5.46968C22.824 5.76258 22.824 6.23745 22.5311 6.53034C22.2382 6.82323 21.7634 6.82322 21.4705 6.53032L17.4706 2.53032C17.1777 2.23742 17.1778 1.76255 17.4707 1.46966Z" fill="#7D86A1"/>
</svg>
