<svg width="26" height="33" viewBox="0 0 26 33" fill="none" xmlns="http://www.w3.org/2000/svg">
<path d="M4.40005 10.4499V15.9499C4.40005 16.0507 4.42774 16.1496 4.48012 16.2357C4.5325 16.3218 4.60755 16.3919 4.69706 16.4383L9.09708 18.7148C9.17512 18.7557 9.26196 18.777 9.35009 18.7769C9.43628 18.7768 9.52125 18.7565 9.59814 18.7175L13.9982 16.4955C14.0889 16.4496 14.1652 16.3795 14.2185 16.2929C14.2718 16.2063 14.3001 16.1066 14.3001 16.0049V10.4499C14.3002 10.3477 14.2717 10.2475 14.218 10.1605C14.1643 10.0736 14.0874 10.0033 13.996 9.95761L9.59594 7.75759C9.5196 7.71944 9.43543 7.69958 9.35009 7.69958C9.26474 7.69958 9.18057 7.71944 9.10423 7.75759L4.70421 9.95761C4.61278 10.0033 4.53589 10.0736 4.48217 10.1605C4.42844 10.2475 4.40001 10.3477 4.40005 10.4499ZM5.50006 11.3398L6.60007 11.8898V13.7499H7.70008V12.4398L8.80008 12.9898V17.3249L5.50006 15.6199V11.3398ZM9.90009 17.3348V12.9898L13.2001 11.3398V15.6661L9.90009 17.3348ZM9.35009 8.86475L12.5203 10.4499L9.35009 12.035L8.37988 11.5499L9.59594 10.9449L9.10423 9.96036L7.15007 10.935L6.17987 10.4499L9.35009 8.86475Z" fill="#713BDB"/>
<path d="M15.9501 11.5499H20.3501C20.496 11.5499 20.6359 11.4919 20.739 11.3888C20.8422 11.2856 20.9001 11.1457 20.9001 10.9999C20.9001 10.854 20.8422 10.7141 20.739 10.611C20.6359 10.5078 20.496 10.4499 20.3501 10.4499H15.9501C15.8042 10.4499 15.6643 10.5078 15.5612 10.611C15.458 10.7141 15.4001 10.854 15.4001 10.9999C15.4001 11.1457 15.458 11.2856 15.5612 11.3888C15.6643 11.4919 15.8042 11.5499 15.9501 11.5499Z" fill="#713BDB"/>
<path d="M15.9501 13.7499H20.3501C20.496 13.7499 20.6359 13.6919 20.739 13.5888C20.8422 13.4856 20.9001 13.3457 20.9001 13.1999C20.9001 13.054 20.8422 12.9141 20.739 12.811C20.6359 12.7078 20.496 12.6499 20.3501 12.6499H15.9501C15.8042 12.6499 15.6643 12.7078 15.5612 12.811C15.458 12.9141 15.4001 13.054 15.4001 13.1999C15.4001 13.3457 15.458 13.4856 15.5612 13.5888C15.6643 13.6919 15.8042 13.7499 15.9501 13.7499Z" fill="#713BDB"/>
<path d="M15.9501 15.9499H20.3501C20.496 15.9499 20.6359 15.8919 20.739 15.7888C20.8422 15.6857 20.9001 15.5458 20.9001 15.3999C20.9001 15.254 20.8422 15.1141 20.739 15.011C20.6359 14.9078 20.496 14.8499 20.3501 14.8499H15.9501C15.8042 14.8499 15.6643 14.9078 15.5612 15.011C15.458 15.1141 15.4001 15.254 15.4001 15.3999C15.4001 15.5458 15.458 15.6857 15.5612 15.7888C15.6643 15.8919 15.8042 15.9499 15.9501 15.9499Z" fill="#713BDB"/>
<path d="M24.7502 2.19981H18.1501V1.64981C18.1501 1.50394 18.0922 1.36404 17.989 1.2609C17.8859 1.15775 17.746 1.0998 17.6001 1.0998H14.5536C14.3609 0.765459 14.0835 0.487783 13.7493 0.294716C13.4151 0.101648 13.036 0 12.6501 0C12.2641 0 11.885 0.101648 11.5509 0.294716C11.2167 0.487783 10.9393 0.765459 10.7465 1.0998H7.70005C7.55418 1.0998 7.41428 1.15775 7.31114 1.2609C7.20799 1.36404 7.15004 1.50394 7.15004 1.64981V2.19981H0.550003C0.404133 2.19981 0.264238 2.25776 0.161092 2.3609C0.0579467 2.46405 0 2.60394 0 2.74981V32.45C0 32.5959 0.0579467 32.7358 0.161092 32.8389C0.264238 32.9421 0.404133 33 0.550003 33H24.7502C24.896 33 25.0359 32.9421 25.1391 32.8389C25.2422 32.7358 25.3002 32.5959 25.3002 32.45V2.74981C25.3002 2.60394 25.2422 2.46405 25.1391 2.3609C25.0359 2.25776 24.896 2.19981 24.7502 2.19981ZM8.25005 2.19981H11.0991C11.2137 2.1998 11.3255 2.16396 11.4188 2.0973C11.5121 2.03064 11.5822 1.93648 11.6194 1.82801C11.6948 1.61494 11.8344 1.4305 12.019 1.30004C12.2036 1.16959 12.4241 1.09954 12.6501 1.09954C12.8761 1.09954 13.0966 1.16959 13.2812 1.30004C13.4657 1.4305 13.6053 1.61494 13.6808 1.82801C13.7179 1.93648 13.7881 2.03064 13.8813 2.0973C13.9746 2.16396 14.0864 2.1998 14.2011 2.19981H17.0501V5.49983H8.25005V2.19981ZM7.70005 6.59984H17.6001C17.746 6.59984 17.8859 6.54189 17.989 6.43874C18.0922 6.3356 18.1501 6.1957 18.1501 6.04983V5.49983H22.0001V25.3H18.1501C18.0042 25.3 17.8643 25.3579 17.7612 25.461C17.6581 25.5642 17.6001 25.7041 17.6001 25.85V29.7H3.30002V5.49983H7.15004V6.04983C7.15004 6.1957 7.20799 6.3356 7.31114 6.43874C7.41428 6.54189 7.55418 6.59984 7.70005 6.59984ZM21.2224 26.4L18.7001 28.9223V26.4H21.2224ZM24.2001 31.9H1.10001V3.29982H7.15004V4.39982H2.75002C2.60415 4.39982 2.46425 4.45777 2.36111 4.56092C2.25796 4.66406 2.20001 4.80396 2.20001 4.94983V30.25C2.20001 30.3959 2.25796 30.5357 2.36111 30.6389C2.46425 30.742 2.60415 30.8 2.75002 30.8H18.1501C18.296 30.8 18.4358 30.742 18.539 30.6388L22.939 26.2388C23.0421 26.1357 23.1001 25.9958 23.1001 25.85V4.94983C23.1001 4.80396 23.0422 4.66406 22.939 4.56092C22.8359 4.45777 22.696 4.39982 22.5501 4.39982H18.1501V3.29982H24.2001V31.9Z" fill="#713BDB"/>
<path d="M11.2201 22.1099L9.90009 23.0999V22.5499C9.90009 22.4041 9.84214 22.2642 9.739 22.161C9.63585 22.0579 9.49595 21.9999 9.35009 21.9999H4.95006C4.80419 21.9999 4.66429 22.0579 4.56115 22.161C4.458 22.2642 4.40005 22.4041 4.40005 22.5499V26.95C4.40005 27.0958 4.458 27.2357 4.56115 27.3389C4.66429 27.442 4.80419 27.5 4.95006 27.5H9.35009C9.49595 27.5 9.63585 27.442 9.739 27.3389C9.84214 27.2357 9.90009 27.0958 9.90009 26.95V24.475L11.8801 22.9899C11.9379 22.9466 11.9866 22.8923 12.0234 22.8302C12.0602 22.768 12.0844 22.6992 12.0946 22.6277C12.1048 22.5562 12.1008 22.4834 12.0829 22.4134C12.065 22.3435 12.0334 22.2777 11.9901 22.2199C11.9468 22.1622 11.8925 22.1135 11.8303 22.0767C11.7682 22.0399 11.6994 22.0157 11.6279 22.0055C11.5564 21.9953 11.4836 21.9992 11.4136 22.0171C11.3436 22.0351 11.2779 22.0666 11.2201 22.1099ZM8.80008 26.4H5.50006V23.0999H8.80008V23.925L7.20177 25.124L6.43892 24.3611C6.38818 24.3086 6.32749 24.2667 6.26039 24.2378C6.19329 24.209 6.12111 24.1939 6.04809 24.1932C5.97506 24.1926 5.90263 24.2065 5.83504 24.2342C5.76745 24.2618 5.70604 24.3026 5.6544 24.3543C5.60275 24.4059 5.56191 24.4673 5.53426 24.5349C5.5066 24.6025 5.49269 24.6749 5.49332 24.748C5.49396 24.821 5.50913 24.8932 5.53796 24.9603C5.56678 25.0274 5.60868 25.0881 5.66121 25.1388L6.76122 26.2388C6.85483 26.3324 6.97905 26.3891 7.1111 26.3985C7.24315 26.4079 7.37416 26.3694 7.48007 26.29L8.80008 25.3V26.4Z" fill="#713BDB"/>
<path d="M13.2001 23.6499H13.7501C13.896 23.6499 14.0359 23.592 14.139 23.4888C14.2421 23.3857 14.3001 23.2458 14.3001 23.0999C14.3001 22.9541 14.2421 22.8142 14.139 22.711C14.0359 22.6079 13.896 22.5499 13.7501 22.5499H13.2001C13.0542 22.5499 12.9143 22.6079 12.8112 22.711C12.708 22.8142 12.6501 22.9541 12.6501 23.0999C12.6501 23.2458 12.708 23.3857 12.8112 23.4888C12.9143 23.592 13.0542 23.6499 13.2001 23.6499Z" fill="#713BDB"/>
<path d="M15.4001 23.6499H19.8001C19.946 23.6499 20.0859 23.592 20.189 23.4888C20.2922 23.3857 20.3501 23.2458 20.3501 23.0999C20.3501 22.9541 20.2922 22.8142 20.189 22.711C20.0859 22.6079 19.946 22.5499 19.8001 22.5499H15.4001C15.2542 22.5499 15.1143 22.6079 15.0112 22.711C14.908 22.8142 14.8501 22.9541 14.8501 23.0999C14.8501 23.2458 14.908 23.3857 15.0112 23.4888C15.1143 23.592 15.2542 23.6499 15.4001 23.6499Z" fill="#713BDB"/>
<path d="M16.5001 24.2H13.2001C13.0542 24.2 12.9143 24.2579 12.8112 24.361C12.708 24.4642 12.6501 24.6041 12.6501 24.75C12.6501 24.8958 12.708 25.0357 12.8112 25.1389C12.9143 25.242 13.0542 25.3 13.2001 25.3H16.5001C16.646 25.3 16.7859 25.242 16.889 25.1389C16.9922 25.0357 17.0501 24.8958 17.0501 24.75C17.0501 24.6041 16.9922 24.4642 16.889 24.361C16.7859 24.2579 16.646 24.2 16.5001 24.2Z" fill="#713BDB"/>
<path d="M15.4001 26.4H13.2001C13.0542 26.4 12.9143 26.4579 12.8112 26.5611C12.708 26.6642 12.6501 26.8041 12.6501 26.95C12.6501 27.0958 12.708 27.2357 12.8112 27.3389C12.9143 27.442 13.0542 27.5 13.2001 27.5H15.4001C15.546 27.5 15.6859 27.442 15.789 27.3389C15.8922 27.2357 15.9501 27.0958 15.9501 26.95C15.9501 26.8041 15.8922 26.6642 15.789 26.5611C15.6859 26.4579 15.546 26.4 15.4001 26.4Z" fill="#713BDB"/>
</svg>
