<svg width="39" height="25" viewBox="0 0 39 25" fill="none" xmlns="http://www.w3.org/2000/svg">
<path d="M19.0013 0C15.8124 0 13.2183 2.59408 13.2183 5.78306C13.2183 8.97204 15.8124 11.5661 19.0013 11.5661C22.1903 11.5661 24.7844 8.97196 24.7844 5.78306C24.7844 2.59415 22.1903 0 19.0013 0ZM19.0013 9.91376C16.7245 9.91376 14.8706 8.05989 14.8706 5.78306C14.8706 3.50622 16.7245 1.65235 19.0013 1.65235C21.2782 1.65235 23.1321 3.50622 23.1321 5.78306C23.1321 8.05989 21.2783 9.91376 19.0013 9.91376Z" fill="#713BDB"/>
<path d="M30.5674 6.60919C28.2906 6.60919 26.4367 8.46307 26.4367 10.7399C26.4367 13.0167 28.2906 14.8706 30.5674 14.8706C32.8443 14.8706 34.6982 13.0167 34.6982 10.7399C34.6982 8.46307 32.8443 6.60919 30.5674 6.60919ZM30.5674 13.2183C29.201 13.2183 28.089 12.1064 28.089 10.7399C28.089 9.37343 29.201 8.26146 30.5674 8.26146C31.9339 8.26146 33.0459 9.37343 33.0459 10.7399C33.0459 12.1064 31.9338 13.2183 30.5674 13.2183Z" fill="#713BDB"/>
<path d="M7.55271 6.60919C5.27417 6.60919 3.422 8.46307 3.422 10.7399C3.422 13.0167 5.27587 14.8706 7.55271 14.8706C9.82954 14.8706 11.6834 13.0167 11.6834 10.7399C11.6834 8.46307 9.83117 6.60919 7.55271 6.60919ZM7.55271 13.2183C6.18623 13.2183 5.07427 12.1064 5.07427 10.7399C5.07427 9.37343 6.18623 8.26146 7.55271 8.26146C8.91918 8.26146 10.0311 9.37343 10.0311 10.7399C10.0311 12.1064 8.9191 13.2183 7.55271 13.2183Z" fill="#713BDB"/>
<path d="M19.0013 13.2184C13.0795 13.2184 8.26138 18.0365 8.26138 23.9583C8.26138 24.4144 8.63152 24.7845 9.08756 24.7845C9.54359 24.7845 9.91373 24.4144 9.91373 23.9583C9.91373 18.9469 13.9899 14.8707 19.0013 14.8707C24.0127 14.8707 28.0889 18.9469 28.0889 23.9583C28.0889 24.4144 28.4591 24.7845 28.9151 24.7845C29.3711 24.7845 29.7413 24.4144 29.7413 23.9583C29.7413 18.0365 24.9232 13.2184 19.0013 13.2184Z" fill="#713BDB"/>
<path d="M30.5675 16.523C29.2077 16.523 27.8759 16.8948 26.716 17.597C26.3277 17.835 26.2021 18.3422 26.4384 18.7322C26.678 19.1221 27.1836 19.246 27.5735 19.0097C28.474 18.4628 29.5084 18.1753 30.5675 18.1753C33.7564 18.1753 36.3506 20.7694 36.3506 23.9583C36.3506 24.4144 36.7207 24.7845 37.1767 24.7845C37.6328 24.7845 38.0029 24.4144 38.0029 23.9583C38.0028 19.859 34.6668 16.523 30.5675 16.523Z" fill="#713BDB"/>
<path d="M11.2852 17.5953C10.1269 16.8948 8.79521 16.523 7.43532 16.523C3.33598 16.523 0 19.859 0 23.9583C0 24.4144 0.37014 24.7845 0.826173 24.7845C1.28221 24.7845 1.65235 24.4144 1.65235 23.9583C1.65227 20.7694 4.24642 18.1753 7.43532 18.1753C8.49447 18.1753 9.52875 18.4628 10.4277 19.008C10.8159 19.2443 11.3248 19.1204 11.5628 18.7304C11.8007 18.3405 11.6751 17.8333 11.2852 17.5953Z" fill="#713BDB"/>
</svg>
